<?xml version="1.0" standalone="no"?>
<!DOCTYPE svg PUBLIC "-//W3C//DTD SVG 20010904//EN"
 "http://www.w3.org/TR/2001/REC-SVG-20010904/DTD/svg10.dtd">
<svg version="1.0" xmlns="http://www.w3.org/2000/svg"
 width="512.000000pt" height="512.000000pt" viewBox="0 0 512.000000 512.000000"
 preserveAspectRatio="xMidYMid meet">
<metadata>
Created by potrace 1.14, written by Peter Selinger 2001-2017
</metadata>
<g transform="translate(0.000000,512.000000) scale(0.100000,-0.100000)"
fill="#000000" stroke="none">
<path d="M2418 4855 c-2 -1 -39 -6 -84 -9 -44 -4 -91 -9 -105 -11 -13 -3 -40
-7 -59 -11 -215 -34 -476 -123 -676 -229 -248 -132 -493 -326 -673 -535 -81
-95 -211 -271 -211 -287 0 -3 -6 -14 -14 -22 -67 -78 -225 -454 -267 -637 -12
-53 -14 -63 -28 -139 -34 -175 -45 -429 -28 -635 38 -439 230 -902 514 -1240
100 -118 242 -259 333 -330 25 -19 50 -39 57 -45 29 -24 43 -33 133 -92 245
-158 552 -283 805 -328 28 -5 95 -16 128 -20 15 -2 47 -7 70 -11 110 -16 407
-11 572 11 105 13 324 66 402 96 15 6 35 12 43 14 32 7 239 99 320 143 83 44
234 140 275 174 11 9 52 42 90 73 277 225 500 517 647 850 95 213 166 480 185
698 10 108 9 363 -1 457 -5 41 -10 87 -11 101 -2 15 -6 39 -9 55 -8 35 -14 68
-22 108 -2 16 -7 32 -9 36 -2 4 -7 21 -10 38 -24 140 -172 494 -256 614 -11
14 -19 29 -19 32 0 8 -64 101 -72 104 -5 2 -8 10 -8 17 0 7 -3 15 -8 17 -4 2
-36 39 -70 83 -358 452 -908 766 -1472 840 -25 3 -58 9 -75 11 -32 6 -382 14
-387 9z m437 -174 c355 -59 617 -160 895 -347 156 -104 179 -123 316 -259 179
-178 290 -330 404 -555 67 -130 147 -342 163 -430 3 -14 12 -54 20 -90 9 -36
18 -83 21 -105 3 -22 9 -65 13 -95 4 -30 7 -136 8 -235 0 -188 -7 -279 -30
-381 -3 -12 -7 -39 -11 -60 -8 -56 -51 -208 -81 -289 -114 -308 -271 -553
-503 -785 -353 -353 -798 -567 -1285 -618 -90 -9 -358 -9 -455 0 -128 12 -397
73 -475 107 -11 5 -47 19 -80 32 -305 115 -635 352 -853 613 -211 253 -383
597 -446 891 -43 198 -51 274 -51 475 0 180 8 287 30 395 8 39 16 79 18 90 12
65 57 207 99 315 169 430 500 817 898 1050 277 163 537 248 895 293 63 8 423
-1 490 -12z"/>
<path d="M3654 3896 c-110 -35 -158 -72 -419 -333 l-255 -254 -63 6 c-34 3
-78 8 -97 10 -19 2 -61 6 -92 9 -32 3 -82 8 -110 11 -29 3 -73 8 -98 10 -25 3
-65 7 -90 9 -25 3 -72 8 -105 11 -33 3 -76 8 -95 10 -19 2 -68 7 -107 10 -40
3 -81 8 -91 10 -10 2 -57 6 -103 9 -46 4 -93 8 -104 10 -18 3 -110 13 -200 21
-111 10 -181 18 -186 21 -16 9 -229 -195 -229 -220 0 -7 15 -21 33 -29 59 -28
279 -127 607 -274 179 -80 350 -156 380 -170 30 -14 74 -34 98 -44 23 -10 42
-21 42 -25 0 -4 -88 -94 -195 -200 -174 -174 -198 -194 -222 -190 -16 3 -59 8
-98 12 -38 3 -81 8 -95 9 -14 2 -65 7 -115 10 -49 4 -98 9 -108 11 -21 4 -191
-160 -185 -178 5 -13 55 -42 136 -76 29 -12 92 -41 140 -63 48 -23 128 -59
177 -81 50 -22 94 -45 100 -50 5 -5 64 -129 131 -276 67 -147 129 -271 137
-276 12 -8 34 8 98 73 l83 83 -2 62 c-2 35 -4 72 -6 83 -2 10 -7 53 -10 94 -7
80 -13 133 -22 191 -6 37 -5 38 189 233 107 107 197 195 201 195 6 0 45 -80
79 -162 14 -34 254 -570 287 -643 11 -22 50 -110 89 -195 38 -85 76 -156 84
-158 15 -3 230 205 223 216 -2 4 -7 45 -11 92 -6 85 -11 134 -20 200 -2 19 -7
64 -10 100 -5 61 -9 91 -20 193 -2 23 -7 74 -10 112 -8 93 -14 153 -20 195 -2
19 -7 67 -9 105 -3 39 -7 79 -10 90 -2 11 -7 56 -10 100 -4 44 -9 94 -11 110
-5 40 -14 126 -20 197 l-5 57 232 235 c128 128 248 252 266 275 89 111 127
269 82 349 -13 23 -37 46 -56 56 -41 19 -122 20 -180 2z"/>
</g>
</svg>
